# Made in Blockbench 4.7.2
mtllib projectile.mtl

o cylinder
v -1.144917494144693e-18 0.03125 -1.144917494144693e-18
v 0.0028469601695806763 0.03125 0.010624999999999994
v 0.003349364905389031 0.0668579931972789 0.012499999999999995
v 0.007778039830419316 0.03125 0.007778039830419319
v 0.00915063509461096 0.0668579931972789 0.009150635094610964
v 0.010624999999999994 0.03125 0.0028469601695806763
v 0.012499999999999995 0.0668579931972789 0.003349364905389031
v 0.010624999999999994 0.03125 -0.0028469601695806797
v 0.012499999999999995 0.0668579931972789 -0.0033493649053890347
v 0.007778039830419319 0.03125 -0.00777803983041932
v 0.009150635094610964 0.0668579931972789 -0.009150635094610964
v 0.0028469601695806797 0.03125 -0.010624999999999997
v 0.0033493649053890355 0.0668579931972789 -0.012499999999999995
v -0.0028469601695806745 0.03125 -0.010625
v -0.0033493649053890286 0.0668579931972789 -0.012499999999999999
v -0.00777803983041932 0.03125 -0.007778039830419322
v -0.009150635094610964 0.0668579931972789 -0.009150635094610967
v -0.010624999999999997 0.03125 -0.0028469601695806776
v -0.012499999999999995 0.0668579931972789 -0.003349364905389032
v -0.010625 0.03125 0.0028469601695806715
v -0.012499999999999999 0.0668579931972789 0.0033493649053890255
v -0.007778039830419322 0.03125 0.007778039830419316
v -0.009150635094610967 0.0668579931972789 0.00915063509461096
v -0.002846960169580678 0.03125 0.010624999999999994
v -0.0033493649053890325 0.0668579931972789 0.012499999999999995
v -0.012499999999999995 0.04193239795918367 -0.003349364905389032
v -0.009150635094610964 0.04193239795918367 -0.009150635094610967
v -0.0033493649053890286 0.04193239795918367 -0.012499999999999999
v 0.0033493649053890355 0.04193239795918367 -0.012499999999999995
v 0.009150635094610964 0.04193239795918367 -0.009150635094610964
v 0.012499999999999995 0.04193239795918367 -0.0033493649053890347
v 0.012499999999999995 0.04193239795918367 0.003349364905389031
v 0.00915063509461096 0.04193239795918367 0.009150635094610964
v 0.003349364905389031 0.04193239795918367 0.012499999999999995
v -0.0033493649053890325 0.04193239795918367 0.012499999999999995
v -0.009150635094610967 0.04193239795918367 0.00915063509461096
v -0.012499999999999999 0.04193239795918367 0.0033493649053890255
v 0.0015624999999999984 0.08288159013605442 -0.0004186706131736305
v 0.0011438293868263694 0.08288159013605442 -0.0011438293868263718
v -1.3010426069826053e-18 0.08359375 -1.3010426069826053e-18
v 0.00041867061317362825 0.08288159013605442 -0.0015625000000000007
v -0.0004186706131736297 0.08288159013605442 -0.001562500000000001
v -0.0011438293868263718 0.08288159013605442 -0.001143829386826372
v -0.0015625000000000007 0.08288159013605442 -0.00041867061317363014
v -0.001562500000000001 0.08288159013605442 0.00041867061317362705
v -0.001143829386826372 0.08288159013605442 0.001143829386826369
v -0.00041867061317363025 0.08288159013605442 0.0015624999999999984
v 0.0004186706131736277 0.08288159013605442 0.0015624999999999984
v 0.001143829386826369 0.08288159013605442 0.0011438293868263694
v 0.0015624999999999984 0.08288159013605442 0.0004186706131736277
v -0.006519758462532122 0.07486992983752783 -0.006519758462532124
v -0.008906155686357452 0.07486992983752783 -0.0023863972238253304
v -0.008906155686357452 0.07486992983752783 0.0023863972238253248
v -0.006519758462532124 0.07486992983752783 0.006519758462532118
v -0.002386397223825331 0.07486992983752783 0.008906155686357452
v 0.0023863972238253287 0.07486992983752783 0.008906155686357452
v 0.006519758462532118 0.07486992983752783 0.006519758462532121
v 0.008906155686357452 0.07486992983752783 0.0023863972238253287
v 0.008906155686357452 0.07486992983752783 -0.002386397223825332
v 0.006519758462532121 0.07486992983752783 -0.006519758462532122
v 0.0023863972238253317 0.07486992983752783 -0.008906155686357452
v -0.002386397223825328 0.07486992983752783 -0.008906155686357452
vt 0.12940937979190303 0.9352953101040485
vt 0.11207200540068536 1
vt 0 0.9352953101040484
vt 0 1
vt 0 0.78125
vt 0.0669875 0.78125
vt 0.0669875 1
vt 0 0.8727960344023451
vt 0.032357126718959295 0.8814617525379477
vt 1.0408340855860843e-17 0.9375
vt 0.12940954867807283 0.9352953945470232
vt 0.11207185914090836 1
vt 0 0.9352953945470233
vt 0 1
vt 0 0.78125
vt 0.0669875 0.78125
vt 0.0669875 1
vt 0 0.872790890686666
vt 0.032354554656666965 0.8814662070083485
vt 0 0.9375
vt 0.125 0.9330125
vt 0.125 1
vt 0 0.96650625
vt 0 1
vt 0 0.78125
vt 0.0669875 0.78125
vt 0.0669875 1
vt 0.125 0.9040125
vt 0.125 0.9375
vt 0.0625 0.9207562499999999
vt 1.3877787807814457e-17 0.870590620208097
vt 0.06470468989595152 0.8879279945993146
vt 0 1
vt 0 1
vt 0 0.78125
vt 0.0669875 0.78125
vt 0.0669875 1
vt 0.12720396559765484 0.9051428732810407
vt 0.1185382474620523 0.9375
vt 0.0625 0.9051428732810407
vt 0 0.8705904513219271
vt 0.06470460545297682 0.8879281408590917
vt 2.0816681711721685e-17 1
vt 0 1
vt 0 0.78125
vt 0.0669875 0.78125
vt 0.0669875 1
vt 0.12720910931333393 0.9051454453433331
vt 0.11853379299165148 0.9375
vt 0.0625 0.9051454453433331
vt 0 0.875
vt 0.0669875 0.875
vt 0.03349375 1
vt 0 1
vt 0 0.78125
vt 0.0669875 0.78125
vt 0.0669875 1
vt 0.0959875 1
vt 0.0625 1
vt 0.07924375 0.9375
vt 0 1
vt 0.017337374391217672 0.9352953101040484
vt 0.12940937979190303 1
vt 0 1
vt 0 0.78125
vt 0.0669875 0.78125
vt 0.0669875 1
vt 0.09485712671895928 1
vt 0.0625 0.9913342818643974
vt 0.09485712671895931 0.9352960344023452
vt 0 1
vt 0.01733768953716447 0.9352953945470232
vt 0.12940954867807283 1
vt 0 1
vt 0 0.78125
vt 0.0669875 0.78125
vt 0.0669875 1
vt 0.09485455465666696 1
vt 0.0625 0.9913246836783175
vt 0.09485455465666696 0.935290890686666
vt 0 1
vt 0 0.9330125
vt 0.125 0.96650625
vt 0 1
vt 0 0.78125
vt 0.0669875 0.78125
vt 0.0669875 1
vt 0 0.9375
vt 0 0.9040125
vt 0.0625 0.9207562499999999
vt 0.0647046898959515 1
vt 0 0.9826626256087824
vt 0.06470468989595152 0.870590620208097
vt 0 1
vt 0 0.78125
vt 0.0669875 0.78125
vt 0.0669875 1
vt 0 1
vt 0.008665718135602532 0.9676428732810407
vt 0.06470396559765483 1
vt 0.06470460545297682 1
vt 0 0.9826623104628356
vt 0.0647046054529768 0.8705904513219271
vt 0 1
vt 0 0.78125
vt 0.0669875 0.78125
vt 0.0669875 1
vt 0 1
vt 0.008675316321682454 0.9676454453433331
vt 0.06470910931333393 1
vt 0.0669875 1
vt 0 1
vt 0.03349375 0.875
vt 0 1
vt 0 0.78125
vt 0.0669875 0.78125
vt 0.0669875 1
vt 0.0625 0.875
vt 0.0959875 0.875
vt 0.07924375 0.9375
vt 0.0669875 0.6875
vt 0.0669875 0.78125
vt 0 0.78125
vt 0 0.6875
vt 0.0669875 0.6875
vt 0.0669875 0.78125
vt 0 0.78125
vt 0 0.6875
vt 0.0669875 0.6875
vt 0.0669875 0.78125
vt 0 0.78125
vt 0 0.6875
vt 0.0669875 0.6875
vt 0.0669875 0.78125
vt 0 0.78125
vt 0 0.6875
vt 0.0669875 0.6875
vt 0.0669875 0.78125
vt 0 0.78125
vt 0 0.6875
vt 0.0669875 0.6875
vt 0.0669875 0.78125
vt 0 0.78125
vt 0 0.6875
vt 0.0669875 0.6875
vt 0.0669875 0.78125
vt 0 0.78125
vt 0 0.6875
vt 0.0669875 0.6875
vt 0.0669875 0.78125
vt 0 0.78125
vt 0 0.6875
vt 0.0669875 0.6875
vt 0.0669875 0.78125
vt 0 0.78125
vt 0 0.6875
vt 0.0669875 0.6875
vt 0.0669875 0.78125
vt 0 0.78125
vt 0 0.6875
vt 0.0669875 0.6875
vt 0.0669875 0.78125
vt 0 0.78125
vt 0 0.6875
vt 0.0669875 0.6875
vt 0.0669875 0.78125
vt 0 0.78125
vt 0 0.6875
vt 0.12499279325732437 0.9375
vt 0.09374585775570539 0.9291216726690783
vt 0.0937516883250302 0.8788796563293351
vt 0.12500445459708456 0.870512827277712
vt 0.12500445459708454 0.9375
vt 0.09375168832503018 0.9291331709483768
vt 0.0937458577557054 0.8788911546086337
vt 0.12499279325732437 0.870512827277712
vt 0.0625 1
vt 0.07087514443460687 0.9687494610648998
vt 0.12111235556539314 0.9687494610648998
vt 0.1294875 1
vt 0.0625 0.9999883386602398
vt 0.07087832733092174 0.9687414031586208
vt 0.12112034367066489 0.9687472337279457
vt 0.12948717272228807 1
vt 0.0625 1
vt 0.07086682905162318 0.9687472337279457
vt 0.12110884539136633 0.9687414031586209
vt 0.12948717272228807 0.9999883386602398
vt 0 0.8705125
vt 0.03125053893510026 0.8788876444346069
vt 0.03125053893510026 0.9291248555653931
vt 0 0.9375
vt 0.00001166133976018835 0.870512827277712
vt 0.031258596841379174 0.8788911546086337
vt 0.031252766272054366 0.9291331709483768
vt 0 0.9375
vt 0 0.870512827277712
vt 0.03125276627205435 0.8788796563293351
vt 0.03125859684137914 0.9291216726690783
vt 0.000011661339760160594 0.9375
vt 0.1294875 0.8125
vt 0.12111235556539314 0.8437505389351003
vt 0.07087514443460687 0.8437505389351003
vt 0.0625 0.8125
vt 0.12948717272228807 0.8750072067426756
vt 0.12110884539136633 0.9062541422442946
vt 0.07086682905162317 0.9062483116749698
vt 0.0625 0.8749955454029155
vt 0.12948717272228807 0.8749955454029155
vt 0.12112034367066489 0.9062483116749698
vt 0.07087832733092173 0.9062541422442946
vt 0.0625 0.8750072067426756
vt 0.1875 0.9375
vt 0.15624946106489973 0.9291248555653931
vt 0.15624946106489973 0.8788876444346069
vt 0.1875 0.8705125
vt 0.11273080703944043 0.9374955454029155
vt 0.12110884539136633 0.9687414031586209
vt 0.07086682905162318 0.9687472337279457
vt 0.07923336952084059 0.9374955454029155
vt 0.0625 0.92075
vt 0.03125053893510026 0.9291248555653931
vt 0.03125053893510026 0.8788876444346069
vt 0.0625 0.8872625
vt 0.06250445459708456 0.9207666304791594
vt 0.031252766272054366 0.9291331709483768
vt 0.031258596841379174 0.8788911546086337
vt 0.06250445459708456 0.8872691929605596
vt 0.06250445459708452 0.9207436343171523
vt 0.03125859684137914 0.9291216726690783
vt 0.03125276627205435 0.8788796563293351
vt 0.06250445459708454 0.8872461967985525
vt 0.07925 0.875
vt 0.07087514443460687 0.8437505389351003
vt 0.12111235556539314 0.8437505389351003
vt 0.1127375 0.875
vt 0.07923336952084058 0.9375
vt 0.07086682905162317 0.9062483116749698
vt 0.12110884539136633 0.9062541422442946
vt 0.11273080703944041 0.9375
vt 0.07925636568284763 0.9375
vt 0.07087832733092173 0.9062541422442946
vt 0.12112034367066489 0.9062483116749698
vt 0.11275380320144747 0.9375
vt 0.125 0.8872625
vt 0.15624946106489973 0.8788876444346069
vt 0.15624946106489973 0.9291248555653931
vt 0.125 0.92075
vt 0.0625 0.8872461967985525
vt 0.0937516883250302 0.8788796563293351
vt 0.09374585775570539 0.9291216726690783
vt 0.0625 0.9207436343171523
vt 0.06250000000000001 0.8872691929605596
vt 0.0937458577557054 0.8788911546086337
vt 0.09375168832503018 0.9291331709483768
vt 0.0625 0.9207666304791594
vt 0.1127375 0.9375
vt 0.12111235556539314 0.9687494610648998
vt 0.07087514443460687 0.9687494610648998
vt 0.07925 0.9375
vt 0.11275380320144748 0.9374955454029155
vt 0.12112034367066489 0.9687472337279457
vt 0.07087832733092174 0.9687414031586208
vt 0.07925636568284765 0.9374955454029155
vn 0 -1 0
vn 0.5 0 0.8660254037844387
vn 0.2073677395740392 0.9099420214144491 0.3591714607929474
vn 0 -1 0
vn 0.8660254037844386 0 0.5000000000000001
vn 0.3591714607929474 0.9099420214144491 0.20736773957403928
vn 0 -1 0
vn 1 0 0
vn 0.4147354791480786 0.9099420214144491 0
vn 0 -1 0
vn 0.8660254037844387 0 -0.5
vn 0.3591714607929474 0.9099420214144491 -0.2073677395740392
vn 0 -1 0
vn 0.5 0 -0.8660254037844387
vn 0.2073677395740393 0.9099420214144492 -0.35917146079294743
vn 0 -1 0
vn 5.179260919542349e-16 0 -1
vn 1.0740116295496572e-16 0.909942021414449 -0.41473547914807857
vn 0 -1 0
vn -0.4999999999999996 0 -0.8660254037844389
vn -0.20736773957403906 0.9099420214144491 -0.3591714607929475
vn 0 -1 0
vn -0.8660254037844389 0 -0.4999999999999996
vn -0.35917146079294754 0.9099420214144491 -0.20736773957403912
vn 0 -1 0
vn -1 0 -5.179260919542354e-16
vn -0.4147354791480786 0.9099420214144491 -1.0740116295496582e-16
vn 0 -1 0
vn -0.8660254037844389 0 0.4999999999999996
vn -0.3591714607929476 0.9099420214144491 0.20736773957403912
vn 0 -1 0
vn -0.49999999999999994 0 0.8660254037844387
vn -0.20736773957403928 0.9099420214144491 0.3591714607929474
vn 0 -1 0
vn 0 0 1
vn 0 0.9099420214144492 0.4147354791480786
vn -0.8529856374517957 -0.1728795430387073 -0.49247148739767815
vn -0.49247148739767826 -0.1728795430387074 -0.8529856374517957
vn 5.129828578924944e-16 -0.17287954303870734 -0.9849429747953574
vn 0.4924714873976787 -0.17287954303870742 -0.8529856374517955
vn 0.8529856374517956 -0.17287954303870745 -0.4924714873976786
vn 0.9849429747953572 -0.17287954303870767 0
vn 0.8529856374517955 -0.1728795430387076 0.4924714873976787
vn 0.4924714873976786 -0.17287954303870745 0.8529856374517956
vn 0 -0.17287954303870767 0.9849429747953572
vn -0.4924714873976786 -0.1728795430387076 0.8529856374517955
vn -0.8529856374517957 -0.1728795430387074 0.49247148739767826
vn -0.9849429747953574 -0.17287954303870734 -5.129828578924949e-16
vn 0.7901720600739522 0.40927271344583305 -0.45620605158981775
vn 0.45620605158981764 0.4092727134458329 -0.7901720600739524
vn 0 0.40927271344583316 -0.9124121031796351
vn -0.4562060515898169 0.409272713445833 -0.7901720600739528
vn -0.7901720600739526 0.40927271344583294 -0.4562060515898173
vn -0.9124121031796351 0.4092727134458331 0
vn -0.7901720600739528 0.409272713445833 0.4562060515898169
vn -0.4562060515898178 0.40927271344583277 0.7901720600739524
vn 0 0.4092727134458328 0.9124121031796353
vn 0.45620605158981775 0.40927271344583305 0.7901720600739522
vn 0.7901720600739524 0.40927271344583294 0.45620605158981803
vn 0.9124121031796353 0.4092727134458329 0
vn -0.638408749119993 0.6757063159361923 -0.3685854631574401
vn -0.7371709263148803 0.6757063159361923 0
vn -0.6384087491199932 0.6757063159361922 0.3685854631574397
vn -0.36858546315744056 0.6757063159361923 0.6384087491199928
vn 0 0.6757063159361925 0.7371709263148801
vn 0.3685854631574403 0.6757063159361925 0.6384087491199928
vn 0.6384087491199926 0.6757063159361923 0.3685854631574406
vn 0.7371709263148802 0.6757063159361925 0
vn 0.6384087491199928 0.6757063159361923 -0.36858546315744023
vn 0.3685854631574404 0.6757063159361923 -0.6384087491199929
vn 0 0.6757063159361923 -0.7371709263148802
vn -0.3685854631574397 0.6757063159361923 -0.6384087491199932
usemtl none
f 4/1/1 2/2/1 1/3/1
f 3/4/2 34/5/2 33/6/2 5/7/2
f 48/8/3 49/9/3 40/10/3
f 6/11/4 4/12/4 1/13/4
f 5/14/5 33/15/5 32/16/5 7/17/5
f 49/18/6 50/19/6 40/20/6
f 8/21/7 6/22/7 1/23/7
f 7/24/8 32/25/8 31/26/8 9/27/8
f 50/28/9 38/29/9 40/30/9
f 10/31/10 8/32/10 1/33/10
f 9/34/11 31/35/11 30/36/11 11/37/11
f 38/38/12 39/39/12 40/40/12
f 12/41/13 10/42/13 1/43/13
f 11/44/14 30/45/14 29/46/14 13/47/14
f 39/48/15 41/49/15 40/50/15
f 14/51/16 12/52/16 1/53/16
f 13/54/17 29/55/17 28/56/17 15/57/17
f 41/58/18 42/59/18 40/60/18
f 16/61/19 14/62/19 1/63/19
f 15/64/20 28/65/20 27/66/20 17/67/20
f 42/68/21 43/69/21 40/70/21
f 18/71/22 16/72/22 1/73/22
f 17/74/23 27/75/23 26/76/23 19/77/23
f 43/78/24 44/79/24 40/80/24
f 20/81/25 18/82/25 1/83/25
f 19/84/26 26/85/26 37/86/26 21/87/26
f 44/88/27 45/89/27 40/90/27
f 22/91/28 20/92/28 1/93/28
f 21/94/29 37/95/29 36/96/29 23/97/29
f 45/98/30 46/99/30 40/100/30
f 24/101/31 22/102/31 1/103/31
f 23/104/32 36/105/32 35/106/32 25/107/32
f 46/108/33 47/109/33 40/110/33
f 2/111/34 24/112/34 1/113/34
f 25/114/35 35/115/35 34/116/35 3/117/35
f 47/118/36 48/119/36 40/120/36
f 18/121/37 26/122/37 27/123/37 16/124/37
f 16/125/38 27/126/38 28/127/38 14/128/38
f 14/129/39 28/130/39 29/131/39 12/132/39
f 12/133/40 29/134/40 30/135/40 10/136/40
f 10/137/41 30/138/41 31/139/41 8/140/41
f 8/141/42 31/142/42 32/143/42 6/144/42
f 6/145/43 32/146/43 33/147/43 4/148/43
f 4/149/44 33/150/44 34/151/44 2/152/44
f 2/153/45 34/154/45 35/155/45 24/156/45
f 24/157/46 35/158/46 36/159/46 22/160/46
f 22/161/47 36/162/47 37/163/47 20/164/47
f 20/165/48 37/166/48 26/167/48 18/168/48
f 11/169/49 60/170/49 59/171/49 9/172/49
f 13/173/50 61/174/50 60/175/50 11/176/50
f 15/177/51 62/178/51 61/179/51 13/180/51
f 17/181/52 51/182/52 62/183/52 15/184/52
f 19/185/53 52/186/53 51/187/53 17/188/53
f 21/189/54 53/190/54 52/191/54 19/192/54
f 23/193/55 54/194/55 53/195/55 21/196/55
f 25/197/56 55/198/56 54/199/56 23/200/56
f 3/201/57 56/202/57 55/203/57 25/204/57
f 5/205/58 57/206/58 56/207/58 3/208/58
f 7/209/59 58/210/59 57/211/59 5/212/59
f 9/213/60 59/214/60 58/215/60 7/216/60
f 43/217/61 51/218/61 52/219/61 44/220/61
f 44/221/62 52/222/62 53/223/62 45/224/62
f 45/225/63 53/226/63 54/227/63 46/228/63
f 46/229/64 54/230/64 55/231/64 47/232/64
f 47/233/65 55/234/65 56/235/65 48/236/65
f 48/237/66 56/238/66 57/239/66 49/240/66
f 49/241/67 57/242/67 58/243/67 50/244/67
f 50/245/68 58/246/68 59/247/68 38/248/68
f 38/249/69 59/250/69 60/251/69 39/252/69
f 39/253/70 60/254/70 61/255/70 41/256/70
f 41/257/71 61/258/71 62/259/71 42/260/71
f 42/261/72 62/262/72 51/263/72 43/264/72